<?xml version="1.0" standalone="no"?>
<!DOCTYPE svg PUBLIC "-//W3C//DTD SVG 20010904//EN"
 "http://www.w3.org/TR/2001/REC-SVG-20010904/DTD/svg10.dtd">
<svg version="1.0" xmlns="http://www.w3.org/2000/svg"
 width="4096.000000pt" height="4096.000000pt" viewBox="0 0 4096.000000 4096.000000"
 preserveAspectRatio="xMidYMid meet">
<metadata>
Created by potrace 1.14, written by Peter Selinger 2001-2017
</metadata>
<g transform="translate(0.000000,4096.000000) scale(0.100000,-0.100000)"
fill="#000000" stroke="none">
<path d="M17330 28983 c-209 -9 -385 -35 -720 -104 -270 -55 -320 -67 -441
-105 l-106 -33 -64 20 c-184 58 -366 25 -683 -123 -83 -38 -236 -103 -340
-145 -325 -128 -428 -194 -533 -340 -68 -95 -97 -186 -97 -303 -1 -119 25
-200 93 -297 99 -141 276 -233 447 -233 28 0 68 -13 120 -37 77 -37 82 -38
190 -38 l111 0 104 52 c57 28 155 72 216 97 136 55 198 86 283 141 144 92 534
226 860 295 440 93 564 106 910 96 308 -8 437 -19 630 -54 91 -17 232 -42 313
-57 137 -24 373 -89 542 -149 195 -69 670 -252 815 -314 195 -84 274 -101 388
-83 224 35 387 172 452 380 22 70 26 187 9 261 -27 116 -123 252 -227 319 -80
51 -320 152 -699 295 -549 206 -795 282 -1078 331 -82 15 -235 42 -340 61
-104 19 -244 39 -310 44 -335 26 -405 30 -585 28 -107 -1 -224 -3 -260 -5z"/>
<path d="M17495 26235 c-166 -30 -446 -120 -573 -184 -150 -76 -376 -258 -495
-399 -160 -191 -247 -376 -322 -689 -60 -245 -69 -316 -70 -568 -1 -126 -5
-291 -9 -365 -13 -220 30 -436 122 -613 57 -113 159 -245 281 -368 80 -79 111
-102 181 -136 177 -86 341 -115 650 -115 237 -1 324 10 464 59 267 93 548 258
805 473 131 110 387 351 450 423 134 156 217 332 256 542 21 110 16 339 -10
455 -42 193 -132 409 -266 645 -114 201 -189 305 -307 427 -205 211 -492 365
-771 412 -111 19 -287 19 -386 1z"/>
<path d="M24374 26079 c-67 -4 -170 -15 -230 -23 -60 -9 -163 -21 -229 -26
-305 -26 -949 -165 -1202 -260 -177 -67 -251 -108 -323 -180 -179 -178 -212
-449 -80 -648 46 -69 100 -116 191 -166 161 -88 342 -90 569 -6 119 44 444
126 618 155 81 14 170 30 197 35 28 5 109 14 180 20 72 6 141 14 154 17 21 5
22 4 12 -14 -7 -14 -28 -24 -70 -32 -130 -26 -269 -120 -342 -234 -37 -57
-114 -243 -158 -377 -52 -163 -79 -396 -62 -538 20 -165 78 -326 150 -415 33
-43 34 -45 51 -132 32 -160 108 -334 270 -615 153 -266 240 -384 361 -487 152
-129 372 -225 619 -268 112 -20 351 -20 466 0 164 29 364 112 527 218 230 150
570 498 739 757 219 335 337 768 340 1245 1 136 -3 179 -25 285 -23 113 -81
326 -102 373 -8 20 119 -40 275 -128 41 -23 118 -65 170 -92 52 -28 148 -78
213 -112 184 -97 445 -211 517 -227 83 -17 138 -17 225 1 186 39 333 164 402
342 22 57 26 85 27 168 1 155 -46 268 -157 378 -49 47 -85 70 -186 119 -226
107 -423 207 -601 304 -240 131 -552 283 -690 337 -222 86 -465 150 -770 202
l-205 35 -860 -1 c-473 -1 -914 -5 -981 -10z"/>
<path d="M19985 19134 c-80 -13 -286 -68 -331 -90 -62 -29 -138 -108 -166
-171 -11 -26 -23 -76 -26 -112 l-5 -66 -101 -105 c-206 -214 -344 -479 -391
-750 -23 -133 -54 -394 -61 -510 -14 -226 46 -551 133 -725 164 -326 527 -609
902 -705 202 -51 465 -65 687 -35 320 42 410 56 525 79 242 49 514 149 719
265 189 107 320 248 463 496 63 109 90 187 122 340 48 237 43 430 -17 670 -77
310 -262 601 -529 831 -186 160 -333 256 -584 381 -301 151 -549 200 -1040
207 -148 3 -283 2 -300 0z m-135 -751 c41 3 115 15 165 27 87 21 98 22 340 11
280 -11 441 -37 566 -91 73 -31 295 -157 394 -224 79 -53 224 -193 284 -275
192 -260 238 -645 109 -901 -35 -70 -64 -106 -158 -203 -124 -129 -190 -174
-339 -235 -205 -83 -407 -141 -691 -198 -111 -22 -162 -27 -290 -27 -181 -1
-256 15 -405 88 -115 55 -199 120 -307 234 -144 153 -199 289 -229 568 -24
222 28 643 106 848 27 74 106 219 186 346 l49 76 72 -25 c61 -20 85 -23 148
-19z"/>
</g>
</svg>
